<svg xmlns="http://www.w3.org/2000/svg" viewBox="0 0 512 512">
  <rect width="512" height="512" rx="104" fill="#6b341e"/>
  <path d="M105 233c0-78 68-139 151-139s151 61 151 139c0 31-25 56-56 56h-54v87c0 28-23 51-51 51s-51-23-51-51v-87h-34c-31 0-56-25-56-56Z" fill="#c95324" stroke="#f5c48b" stroke-width="18"/>
  <path d="M164 229c15-43 48-71 92-71 45 0 79 28 94 71" fill="none" stroke="#fff8ef" stroke-width="12" stroke-linecap="round"/>
  <text x="256" y="278" text-anchor="middle" font-family="Georgia, serif" font-size="112" font-style="italic" font-weight="900" fill="#fff8ef">JC</text>
  <text x="256" y="336" text-anchor="middle" font-family="Georgia, serif" font-size="38" font-weight="700" fill="#fff8ef">Cogumelos</text>
  <text x="256" y="372" text-anchor="middle" font-family="Arial, sans-serif" font-size="18" font-weight="900" letter-spacing="2" fill="#f5c48b">FAZENDO + EM</text>
</svg>
